<?xml version="1.0" encoding="UTF-8"?>
<svg xmlns="http://www.w3.org/2000/svg" width="1200" height="630" viewBox="0 0 1200 630" role="img" aria-label="cover image">
  <metadata>
    keywords: esim, matters, customer, 使用你的, 綁定的錢包, 支持作者, 的方式轉帳至本帳, 請將支付截圖及所
    prompt: minimal pencil sketch, bologna illustration style, no text, editorial cover art
    motif: network
  </metadata>
  <defs>
    <filter id="grain" x="-10%" y="-10%" width="120%" height="120%">
      <feTurbulence type="fractalNoise" baseFrequency="0.86" numOctaves="2" stitchTiles="stitch" />
      <feColorMatrix type="saturate" values="0" />
      <feComponentTransfer>
        <feFuncA type="table" tableValues="0 0.045" />
      </feComponentTransfer>
    </filter>
    <linearGradient id="paper" x1="0" y1="0" x2="0" y2="1">
      <stop offset="0%" stop-color="hsl(39 23% 90%)" />
      <stop offset="100%" stop-color="hsl(43 19% 85%)" />
    </linearGradient>
  </defs>

  <rect width="1200" height="630" fill="url(#paper)" />
  <rect width="1200" height="630" filter="url(#grain)" />

  <g><line x1="67.7" y1="66.3" x2="703.9" y2="67.9" stroke="hsl(218 8% 45%)" stroke-width="0.9" opacity="0.18"/>
<line x1="69.7" y1="88.5" x2="759.9" y2="89.1" stroke="hsl(218 8% 45%)" stroke-width="0.9" opacity="0.18"/>
<line x1="66.0" y1="115.7" x2="814.5" y2="118.4" stroke="hsl(218 8% 45%)" stroke-width="0.9" opacity="0.18"/>
<line x1="75.7" y1="139.8" x2="750.9" y2="143.3" stroke="hsl(218 8% 45%)" stroke-width="0.9" opacity="0.18"/>
<line x1="69.3" y1="162.4" x2="797.7" y2="164.5" stroke="hsl(218 8% 45%)" stroke-width="0.9" opacity="0.18"/>
<line x1="72.2" y1="182.8" x2="767.9" y2="184.1" stroke="hsl(218 8% 45%)" stroke-width="0.9" opacity="0.18"/>
<line x1="85.3" y1="213.0" x2="810.4" y2="215.0" stroke="hsl(218 8% 45%)" stroke-width="0.9" opacity="0.18"/>
<line x1="66.3" y1="237.5" x2="763.8" y2="241.2" stroke="hsl(218 8% 45%)" stroke-width="0.9" opacity="0.18"/>
<line x1="72.2" y1="261.1" x2="794.6" y2="263.4" stroke="hsl(218 8% 45%)" stroke-width="0.9" opacity="0.18"/>
<line x1="74.2" y1="278.1" x2="786.1" y2="278.6" stroke="hsl(218 8% 45%)" stroke-width="0.9" opacity="0.18"/>
<line x1="94.1" y1="307.1" x2="772.9" y2="307.6" stroke="hsl(218 8% 45%)" stroke-width="0.9" opacity="0.18"/>
<line x1="94.1" y1="328.1" x2="771.0" y2="328.8" stroke="hsl(218 8% 45%)" stroke-width="0.9" opacity="0.18"/>
<line x1="77.8" y1="351.9" x2="818.8" y2="354.1" stroke="hsl(218 8% 45%)" stroke-width="0.9" opacity="0.18"/>
<line x1="92.2" y1="380.3" x2="730.4" y2="381.7" stroke="hsl(218 8% 45%)" stroke-width="0.9" opacity="0.18"/>
<line x1="81.0" y1="402.3" x2="722.2" y2="405.4" stroke="hsl(218 8% 45%)" stroke-width="0.9" opacity="0.18"/>
<line x1="84.2" y1="422.3" x2="776.0" y2="425.4" stroke="hsl(218 8% 45%)" stroke-width="0.9" opacity="0.18"/>
<line x1="63.4" y1="449.5" x2="714.8" y2="450.5" stroke="hsl(218 8% 45%)" stroke-width="0.9" opacity="0.18"/>
<line x1="61.8" y1="473.4" x2="798.6" y2="476.2" stroke="hsl(218 8% 45%)" stroke-width="0.9" opacity="0.18"/>
<line x1="72.8" y1="499.4" x2="744.5" y2="501.2" stroke="hsl(218 8% 45%)" stroke-width="0.9" opacity="0.18"/>
<line x1="73.6" y1="524.1" x2="790.4" y2="524.6" stroke="hsl(218 8% 45%)" stroke-width="0.9" opacity="0.18"/></g>
  <g><path d="M 270.3 220.9 C 694.7 428.6, 231.0 494.9, 375.8 87.8" fill="none" stroke="hsl(218 8% 45%)" stroke-width="1.55" opacity="0.22"/>
<path d="M 274.4 366.4 C 651.8 294.5, 200.4 137.4, 520.8 88.7" fill="none" stroke="hsl(218 8% 45%)" stroke-width="1.07" opacity="0.25"/>
<path d="M 866.9 482.4 C 703.6 449.2, 940.5 101.0, 613.7 551.5" fill="none" stroke="hsl(218 8% 45%)" stroke-width="1.26" opacity="0.21"/>
<path d="M 682.4 312.1 C 225.7 349.8, 591.1 221.1, 741.2 312.1" fill="none" stroke="hsl(218 8% 45%)" stroke-width="0.72" opacity="0.19"/>
<path d="M 887.1 287.3 C 436.9 230.1, 387.9 274.2, 1088.7 210.6" fill="none" stroke="hsl(218 8% 45%)" stroke-width="0.79" opacity="0.18"/>
<path d="M 1048.9 311.1 C 327.8 443.2, 714.5 545.4, 1101.0 341.5" fill="none" stroke="hsl(218 8% 45%)" stroke-width="0.95" opacity="0.13"/>
<path d="M 567.0 435.6 C 271.2 162.4, 126.0 392.2, 615.3 362.3" fill="none" stroke="hsl(218 8% 45%)" stroke-width="1.54" opacity="0.11"/>
<path d="M 211.3 142.0 C 173.2 247.6, 177.8 308.8, 592.9 81.2" fill="none" stroke="hsl(218 8% 45%)" stroke-width="1.10" opacity="0.13"/>
<path d="M 750.6 132.3 C 587.2 546.6, 88.7 421.1, 160.8 202.1" fill="none" stroke="hsl(218 8% 45%)" stroke-width="0.92" opacity="0.19"/>
<path d="M 604.4 102.9 C 559.7 221.8, 429.8 199.2, 117.9 525.6" fill="none" stroke="hsl(218 8% 45%)" stroke-width="1.57" opacity="0.23"/>
<path d="M 818.3 273.8 C 663.2 288.2, 795.8 184.1, 874.7 65.7" fill="none" stroke="hsl(218 8% 45%)" stroke-width="1.35" opacity="0.15"/>
<path d="M 572.3 159.4 C 1137.3 73.2, 119.4 113.1, 949.7 88.4" fill="none" stroke="hsl(218 8% 45%)" stroke-width="1.31" opacity="0.16"/>
<path d="M 569.2 567.2 C 639.4 386.4, 508.7 449.2, 451.4 489.3" fill="none" stroke="hsl(218 8% 45%)" stroke-width="1.22" opacity="0.13"/>
<path d="M 530.5 244.1 C 720.7 218.9, 627.4 428.0, 863.3 395.2" fill="none" stroke="hsl(218 8% 45%)" stroke-width="1.75" opacity="0.25"/>
<path d="M 371.6 286.6 C 162.0 499.2, 831.4 300.8, 885.6 535.8" fill="none" stroke="hsl(218 8% 45%)" stroke-width="1.39" opacity="0.14"/>
<path d="M 598.7 379.6 C 937.0 104.7, 705.4 519.6, 297.8 349.4" fill="none" stroke="hsl(218 8% 45%)" stroke-width="1.45" opacity="0.21"/></g>

  <g>
    <rect x="66" y="74" width="1068" height="482" rx="24" fill="none" stroke="hsl(227 10% 32%)" stroke-width="1.4" opacity="0.48" />
    <rect x="82" y="90" width="620" height="450" rx="18" fill="none" stroke="hsl(218 8% 45%)" stroke-width="1.1" opacity="0.36" />
  </g>

  <g><line x1="776.7" y1="226.0" x2="833.1" y2="157.9" stroke="hsl(218 8% 45%)" stroke-width="2.3"/>
<line x1="1084.7" y1="360.1" x2="1107.1" y2="325.5" stroke="hsl(218 8% 45%)" stroke-width="2.3"/>
<line x1="833.1" y1="157.9" x2="779.9" y2="149.2" stroke="hsl(218 8% 45%)" stroke-width="2.3"/>
<line x1="1107.1" y1="325.5" x2="1118.2" y2="237.3" stroke="hsl(218 8% 45%)" stroke-width="2.3"/>
<line x1="779.9" y1="149.2" x2="767.6" y2="401.2" stroke="hsl(218 8% 45%)" stroke-width="2.3"/>
<line x1="1118.2" y1="237.3" x2="840.0" y2="254.4" stroke="hsl(218 8% 45%)" stroke-width="2.3"/>
<line x1="767.6" y1="401.2" x2="842.1" y2="187.9" stroke="hsl(218 8% 45%)" stroke-width="2.3"/>
<line x1="840.0" y1="254.4" x2="776.7" y2="226.0" stroke="hsl(218 8% 45%)" stroke-width="2.3"/>
<line x1="842.1" y1="187.9" x2="1084.7" y2="360.1" stroke="hsl(218 8% 45%)" stroke-width="2.3"/><circle cx="776.7" cy="226.0" r="10.4" fill="none" stroke="hsl(227 10% 32%)" stroke-width="2.6"/>
<circle cx="1084.7" cy="360.1" r="14.9" fill="none" stroke="hsl(227 10% 32%)" stroke-width="2.6"/>
<circle cx="833.1" cy="157.9" r="10.6" fill="none" stroke="hsl(227 10% 32%)" stroke-width="2.6"/>
<circle cx="1107.1" cy="325.5" r="7.8" fill="none" stroke="hsl(227 10% 32%)" stroke-width="2.6"/>
<circle cx="779.9" cy="149.2" r="7.9" fill="none" stroke="hsl(227 10% 32%)" stroke-width="2.6"/>
<circle cx="1118.2" cy="237.3" r="15.5" fill="none" stroke="hsl(227 10% 32%)" stroke-width="2.6"/>
<circle cx="767.6" cy="401.2" r="13.5" fill="none" stroke="hsl(227 10% 32%)" stroke-width="2.6"/>
<circle cx="840.0" cy="254.4" r="14.3" fill="none" stroke="hsl(227 10% 32%)" stroke-width="2.6"/>
<circle cx="842.1" cy="187.9" r="14.0" fill="none" stroke="hsl(227 10% 32%)" stroke-width="2.6"/></g>
</svg>