<?xml version="1.0" encoding="UTF-8"?>
<svg xmlns="http://www.w3.org/2000/svg" width="1200" height="630" viewBox="0 0 1200 630" role="img" aria-label="cover image">
  <metadata>
    keywords: 公共網路, blog, hello github pages, 把你的文章放到, 首頁會自動列出文, 章清單, 這是第一篇文章, posts/
    prompt: minimal pencil sketch, bologna illustration style, no text, editorial cover art
    motif: network
  </metadata>
  <defs>
    <filter id="grain" x="-10%" y="-10%" width="120%" height="120%">
      <feTurbulence type="fractalNoise" baseFrequency="0.86" numOctaves="2" stitchTiles="stitch" />
      <feColorMatrix type="saturate" values="0" />
      <feComponentTransfer>
        <feFuncA type="table" tableValues="0 0.045" />
      </feComponentTransfer>
    </filter>
    <linearGradient id="paper" x1="0" y1="0" x2="0" y2="1">
      <stop offset="0%" stop-color="hsl(34 24% 92%)" />
      <stop offset="100%" stop-color="hsl(38 20% 87%)" />
    </linearGradient>
  </defs>

  <rect width="1200" height="630" fill="url(#paper)" />
  <rect width="1200" height="630" filter="url(#grain)" />

  <g><line x1="78.9" y1="64.6" x2="700.3" y2="67.8" stroke="hsl(211 8% 45%)" stroke-width="0.9" opacity="0.18"/>
<line x1="82.9" y1="91.7" x2="819.2" y2="93.9" stroke="hsl(211 8% 45%)" stroke-width="0.9" opacity="0.18"/>
<line x1="61.6" y1="116.1" x2="771.4" y2="119.9" stroke="hsl(211 8% 45%)" stroke-width="0.9" opacity="0.18"/>
<line x1="75.1" y1="137.3" x2="773.6" y2="139.1" stroke="hsl(211 8% 45%)" stroke-width="0.9" opacity="0.18"/>
<line x1="65.0" y1="162.8" x2="744.6" y2="163.3" stroke="hsl(211 8% 45%)" stroke-width="0.9" opacity="0.18"/>
<line x1="68.2" y1="182.8" x2="791.7" y2="183.1" stroke="hsl(211 8% 45%)" stroke-width="0.9" opacity="0.18"/>
<line x1="93.1" y1="213.5" x2="716.3" y2="213.9" stroke="hsl(211 8% 45%)" stroke-width="0.9" opacity="0.18"/>
<line x1="60.2" y1="236.7" x2="796.1" y2="237.9" stroke="hsl(211 8% 45%)" stroke-width="0.9" opacity="0.18"/>
<line x1="86.7" y1="258.6" x2="747.0" y2="262.1" stroke="hsl(211 8% 45%)" stroke-width="0.9" opacity="0.18"/>
<line x1="76.4" y1="283.8" x2="706.8" y2="286.4" stroke="hsl(211 8% 45%)" stroke-width="0.9" opacity="0.18"/>
<line x1="58.7" y1="306.8" x2="811.2" y2="308.5" stroke="hsl(211 8% 45%)" stroke-width="0.9" opacity="0.18"/>
<line x1="92.7" y1="326.3" x2="726.4" y2="328.1" stroke="hsl(211 8% 45%)" stroke-width="0.9" opacity="0.18"/>
<line x1="92.8" y1="357.3" x2="746.3" y2="359.5" stroke="hsl(211 8% 45%)" stroke-width="0.9" opacity="0.18"/>
<line x1="64.1" y1="379.9" x2="756.5" y2="383.4" stroke="hsl(211 8% 45%)" stroke-width="0.9" opacity="0.18"/>
<line x1="86.3" y1="398.3" x2="701.1" y2="400.2" stroke="hsl(211 8% 45%)" stroke-width="0.9" opacity="0.18"/>
<line x1="83.6" y1="428.8" x2="729.3" y2="431.0" stroke="hsl(211 8% 45%)" stroke-width="0.9" opacity="0.18"/>
<line x1="77.4" y1="451.7" x2="727.4" y2="452.1" stroke="hsl(211 8% 45%)" stroke-width="0.9" opacity="0.18"/>
<line x1="58.3" y1="476.6" x2="793.5" y2="480.5" stroke="hsl(211 8% 45%)" stroke-width="0.9" opacity="0.18"/>
<line x1="57.4" y1="499.6" x2="724.2" y2="501.7" stroke="hsl(211 8% 45%)" stroke-width="0.9" opacity="0.18"/>
<line x1="74.1" y1="524.2" x2="710.2" y2="527.8" stroke="hsl(211 8% 45%)" stroke-width="0.9" opacity="0.18"/></g>
  <g><path d="M 262.4 191.1 C 504.4 281.9, 1037.4 82.9, 1083.7 565.2" fill="none" stroke="hsl(211 8% 45%)" stroke-width="1.44" opacity="0.23"/>
<path d="M 643.4 145.5 C 369.2 484.5, 60.0 95.0, 484.1 79.7" fill="none" stroke="hsl(211 8% 45%)" stroke-width="1.42" opacity="0.17"/>
<path d="M 221.7 553.4 C 919.7 403.6, 416.0 365.3, 728.4 246.0" fill="none" stroke="hsl(211 8% 45%)" stroke-width="1.52" opacity="0.16"/>
<path d="M 162.6 515.3 C 416.0 531.7, 399.2 546.7, 535.0 175.1" fill="none" stroke="hsl(211 8% 45%)" stroke-width="0.75" opacity="0.24"/>
<path d="M 695.2 179.6 C 567.5 347.9, 457.5 103.2, 597.0 465.6" fill="none" stroke="hsl(211 8% 45%)" stroke-width="1.47" opacity="0.19"/>
<path d="M 575.1 85.7 C 169.8 74.8, 687.6 507.3, 879.9 384.5" fill="none" stroke="hsl(211 8% 45%)" stroke-width="1.86" opacity="0.14"/>
<path d="M 546.2 315.9 C 75.7 126.2, 87.5 502.7, 712.6 559.9" fill="none" stroke="hsl(211 8% 45%)" stroke-width="1.88" opacity="0.20"/>
<path d="M 820.2 234.6 C 635.7 179.0, 748.6 555.5, 536.5 314.2" fill="none" stroke="hsl(211 8% 45%)" stroke-width="1.06" opacity="0.20"/>
<path d="M 312.4 140.5 C 661.1 553.7, 970.7 305.9, 84.3 334.8" fill="none" stroke="hsl(211 8% 45%)" stroke-width="1.35" opacity="0.16"/>
<path d="M 622.4 363.4 C 372.5 292.0, 461.7 564.4, 232.4 385.4" fill="none" stroke="hsl(211 8% 45%)" stroke-width="0.82" opacity="0.17"/>
<path d="M 871.2 112.1 C 191.4 337.5, 64.3 121.4, 548.1 525.6" fill="none" stroke="hsl(211 8% 45%)" stroke-width="1.22" opacity="0.13"/>
<path d="M 499.8 243.0 C 436.7 567.3, 429.9 467.1, 824.4 452.2" fill="none" stroke="hsl(211 8% 45%)" stroke-width="0.90" opacity="0.21"/>
<path d="M 71.3 238.0 C 1068.6 517.5, 859.4 433.7, 1037.4 556.7" fill="none" stroke="hsl(211 8% 45%)" stroke-width="1.84" opacity="0.26"/>
<path d="M 323.0 552.2 C 879.3 220.6, 733.2 559.0, 177.1 491.3" fill="none" stroke="hsl(211 8% 45%)" stroke-width="1.90" opacity="0.13"/>
<path d="M 218.6 173.6 C 630.9 277.9, 498.3 564.4, 633.6 460.0" fill="none" stroke="hsl(211 8% 45%)" stroke-width="1.49" opacity="0.16"/>
<path d="M 831.5 83.4 C 170.2 356.7, 155.0 562.1, 862.2 347.7" fill="none" stroke="hsl(211 8% 45%)" stroke-width="1.51" opacity="0.14"/></g>

  <g>
    <rect x="66" y="74" width="1068" height="482" rx="24" fill="none" stroke="hsl(216 10% 32%)" stroke-width="1.4" opacity="0.48" />
    <rect x="82" y="90" width="620" height="450" rx="18" fill="none" stroke="hsl(211 8% 45%)" stroke-width="1.1" opacity="0.36" />
  </g>

  <g><line x1="1093.5" y1="401.3" x2="1005.9" y2="405.3" stroke="hsl(211 8% 45%)" stroke-width="2.3"/>
<line x1="816.3" y1="196.3" x2="956.0" y2="273.5" stroke="hsl(211 8% 45%)" stroke-width="2.3"/>
<line x1="1005.9" y1="405.3" x2="971.1" y2="178.7" stroke="hsl(211 8% 45%)" stroke-width="2.3"/>
<line x1="956.0" y1="273.5" x2="912.4" y2="294.2" stroke="hsl(211 8% 45%)" stroke-width="2.3"/>
<line x1="971.1" y1="178.7" x2="1010.5" y2="271.3" stroke="hsl(211 8% 45%)" stroke-width="2.3"/>
<line x1="912.4" y1="294.2" x2="941.4" y2="231.3" stroke="hsl(211 8% 45%)" stroke-width="2.3"/>
<line x1="1010.5" y1="271.3" x2="1019.1" y2="140.7" stroke="hsl(211 8% 45%)" stroke-width="2.3"/>
<line x1="941.4" y1="231.3" x2="1093.5" y2="401.3" stroke="hsl(211 8% 45%)" stroke-width="2.3"/>
<line x1="1019.1" y1="140.7" x2="816.3" y2="196.3" stroke="hsl(211 8% 45%)" stroke-width="2.3"/><circle cx="1093.5" cy="401.3" r="15.4" fill="none" stroke="hsl(216 10% 32%)" stroke-width="2.6"/>
<circle cx="816.3" cy="196.3" r="12.3" fill="none" stroke="hsl(216 10% 32%)" stroke-width="2.6"/>
<circle cx="1005.9" cy="405.3" r="7.4" fill="none" stroke="hsl(216 10% 32%)" stroke-width="2.6"/>
<circle cx="956.0" cy="273.5" r="7.2" fill="none" stroke="hsl(216 10% 32%)" stroke-width="2.6"/>
<circle cx="971.1" cy="178.7" r="9.5" fill="none" stroke="hsl(216 10% 32%)" stroke-width="2.6"/>
<circle cx="912.4" cy="294.2" r="12.0" fill="none" stroke="hsl(216 10% 32%)" stroke-width="2.6"/>
<circle cx="1010.5" cy="271.3" r="10.4" fill="none" stroke="hsl(216 10% 32%)" stroke-width="2.6"/>
<circle cx="941.4" cy="231.3" r="7.5" fill="none" stroke="hsl(216 10% 32%)" stroke-width="2.6"/>
<circle cx="1019.1" cy="140.7" r="8.7" fill="none" stroke="hsl(216 10% 32%)" stroke-width="2.6"/></g>
</svg>