<svg width="1200" height="630" viewBox="0 0 1200 630" fill="none" xmlns="http://www.w3.org/2000/svg">
  <defs>
    <linearGradient id="bg" x1="64" y1="40" x2="1140" y2="590" gradientUnits="userSpaceOnUse">
      <stop stop-color="#EEF2E3"/>
      <stop offset="1" stop-color="#DCEADE"/>
    </linearGradient>
    <linearGradient id="desk" x1="120" y1="126" x2="1082" y2="540" gradientUnits="userSpaceOnUse">
      <stop stop-color="#F6E8D0"/>
      <stop offset="1" stop-color="#E9D2B4"/>
    </linearGradient>
    <linearGradient id="board" x1="290" y1="132" x2="865" y2="476" gradientUnits="userSpaceOnUse">
      <stop stop-color="#FFF8EE"/>
      <stop offset="1" stop-color="#F6EFD9"/>
    </linearGradient>
    <filter id="shadow" x="96" y="76" width="1008" height="492" filterUnits="userSpaceOnUse" color-interpolation-filters="sRGB">
      <feDropShadow dx="0" dy="12" stdDeviation="18" flood-color="#8D7B63" flood-opacity="0.18"/>
    </filter>
  </defs>

  <rect width="1200" height="630" fill="url(#bg)"/>
  <rect x="60" y="36" width="1080" height="558" rx="36" fill="#D9EEE7"/>
  <rect x="110" y="116" width="980" height="414" rx="30" fill="url(#desk)"/>

  <g filter="url(#shadow)">
    <rect x="255" y="122" width="610" height="356" rx="24" fill="url(#board)"/>
  </g>

  <circle cx="208" cy="198" r="44" fill="#F6B57C"/>
  <circle cx="200" cy="190" r="8" fill="#FFF7EE"/>
  <circle cx="222" cy="204" r="8" fill="#FFF7EE"/>
  <path d="M154 162L176 136" stroke="#395A58" stroke-width="4" stroke-linecap="round"/>
  <path d="M244 160L264 136" stroke="#395A58" stroke-width="4" stroke-linecap="round"/>
  <rect x="138" y="236" width="116" height="108" rx="16" fill="#FFF6E9" stroke="#356462" stroke-width="3"/>
  <path d="M160 268H232" stroke="#356462" stroke-width="4" stroke-linecap="round"/>
  <path d="M160 292H212" stroke="#356462" stroke-width="4" stroke-linecap="round"/>
  <path d="M160 316H224" stroke="#356462" stroke-width="4" stroke-linecap="round"/>

  <rect x="930" y="136" width="140" height="110" rx="18" fill="#FFF7EC" stroke="#356462" stroke-width="3"/>
  <path d="M968 172L1032 206" stroke="#F28A54" stroke-width="8" stroke-linecap="round"/>
  <path d="M968 206L1032 172" stroke="#F28A54" stroke-width="8" stroke-linecap="round"/>
  <rect x="930" y="274" width="142" height="112" rx="18" fill="#FFF7EC" stroke="#356462" stroke-width="3"/>
  <circle cx="970" cy="314" r="10" fill="#56A3A6"/>
  <circle cx="1029" cy="314" r="10" fill="#56A3A6"/>
  <circle cx="999" cy="348" r="10" fill="#56A3A6"/>
  <path d="M970 314L999 348L1029 314" stroke="#56A3A6" stroke-width="6" stroke-linecap="round" stroke-linejoin="round"/>
  <rect x="930" y="412" width="124" height="92" rx="18" fill="#E8C49E" fill-opacity="0.35" stroke="#B88961" stroke-width="3" stroke-dasharray="9 10"/>
  <rect x="950" y="428" width="124" height="92" rx="18" fill="#D5A474" fill-opacity="0.2" stroke="#B88961" stroke-width="3" stroke-dasharray="9 10"/>
  <circle cx="1004" cy="458" r="31" fill="#E9C58D" fill-opacity="0.35" stroke="#B88961" stroke-width="5"/>
  <circle cx="1004" cy="458" r="14" fill="#E9C58D" fill-opacity="0.18" stroke="#B88961" stroke-width="4"/>

  <path d="M543 170C575 146 626 148 657 174C689 201 702 260 695 321C688 382 659 445 620 470C580 494 531 475 502 434C472 391 468 325 476 272C485 219 512 192 543 170Z" fill="#69AFA6" stroke="#356462" stroke-width="5"/>
  <path d="M620 470C631 488 640 507 640 524" stroke="#356462" stroke-width="5" stroke-linecap="round"/>

  <g fill="#F28A54" stroke="#FFF8EE" stroke-width="6">
    <circle cx="578" cy="214" r="14"/>
    <circle cx="541" cy="274" r="14"/>
    <circle cx="614" cy="290" r="14"/>
    <circle cx="566" cy="354" r="14"/>
    <circle cx="608" cy="418" r="14"/>
  </g>

  <g stroke="#4F8D90" stroke-width="5" stroke-linecap="round" stroke-dasharray="7 10">
    <path d="M578 214C520 176 438 170 364 202"/>
    <path d="M541 274C456 268 390 292 324 334"/>
    <path d="M614 290C734 248 842 248 930 292"/>
    <path d="M566 354C482 387 418 422 358 462"/>
    <path d="M608 418C724 434 826 442 930 454"/>
  </g>

  <g stroke="#7AAEB1" stroke-width="3" stroke-linecap="round">
    <path d="M578 214C549 190 520 178 493 174"/>
    <path d="M541 274C515 272 492 276 469 286"/>
    <path d="M614 290C651 280 690 278 729 283"/>
    <path d="M566 354C527 372 488 393 450 420"/>
    <path d="M608 418C654 425 700 430 748 435"/>
  </g>

  <rect x="314" y="170" width="76" height="60" rx="12" fill="#FFF7EC" stroke="#356462" stroke-width="3"/>
  <path d="M334 190H370" stroke="#356462" stroke-width="4" stroke-linecap="round"/>
  <path d="M334 205H362" stroke="#356462" stroke-width="4" stroke-linecap="round"/>
  <path d="M334 220H374" stroke="#356462" stroke-width="4" stroke-linecap="round"/>

  <rect x="274" y="308" width="86" height="58" rx="12" fill="#FFF7EC" stroke="#356462" stroke-width="3"/>
  <circle cx="307" cy="337" r="9" fill="#56A3A6"/>
  <path d="M322 322L346 337L322 352V322Z" fill="#F28A54"/>

  <rect x="292" y="444" width="92" height="62" rx="12" fill="#FFF7EC" stroke="#356462" stroke-width="3"/>
  <path d="M314 466H363" stroke="#356462" stroke-width="4" stroke-linecap="round"/>
  <path d="M314 484H351" stroke="#356462" stroke-width="4" stroke-linecap="round"/>
  <path d="M314 502H362" stroke="#356462" stroke-width="4" stroke-linecap="round"/>

  <rect x="116" y="412" width="156" height="92" rx="18" fill="#FFF8EE" stroke="#356462" stroke-width="4"/>
  <path d="M142 440H244" stroke="#356462" stroke-width="6" stroke-linecap="round"/>
  <path d="M142 466H220" stroke="#356462" stroke-width="6" stroke-linecap="round"/>
  <path d="M142 492H232" stroke="#356462" stroke-width="6" stroke-linecap="round"/>

  <rect x="814" y="94" width="118" height="52" rx="18" fill="#FFF7EC" stroke="#356462" stroke-width="3"/>
  <circle cx="845" cy="120" r="8" fill="#56A3A6"/>
  <circle cx="873" cy="120" r="8" fill="#56A3A6"/>
  <circle cx="901" cy="120" r="8" fill="#56A3A6"/>
  <path d="M845 120H901" stroke="#56A3A6" stroke-width="5" stroke-linecap="round"/>

  <circle cx="111" cy="85" r="18" fill="#F6B57C" fill-opacity="0.7"/>
  <circle cx="1063" cy="90" r="14" fill="#69AFA6" fill-opacity="0.75"/>
  <circle cx="1110" cy="547" r="18" fill="#F28A54" fill-opacity="0.55"/>
  <circle cx="86" cy="552" r="12" fill="#69AFA6" fill-opacity="0.5"/>
</svg>
