<?xml version="1.0" encoding="UTF-8"?>
<svg xmlns="http://www.w3.org/2000/svg" width="1200" height="630" viewBox="0 0 1200 630" role="img" aria-label="cover image">
  <metadata>
    keywords: hello, 可以被, hello astro, 最小文章範例, 驗證, 與頁面渲染, 這是一篇最小內容, 測試文
    prompt: minimal pencil sketch, bologna illustration style, no text, editorial cover art
    motif: abstract
  </metadata>
  <defs>
    <filter id="grain" x="-10%" y="-10%" width="120%" height="120%">
      <feTurbulence type="fractalNoise" baseFrequency="0.86" numOctaves="2" stitchTiles="stitch" />
      <feColorMatrix type="saturate" values="0" />
      <feComponentTransfer>
        <feFuncA type="table" tableValues="0 0.045" />
      </feComponentTransfer>
    </filter>
    <linearGradient id="paper" x1="0" y1="0" x2="0" y2="1">
      <stop offset="0%" stop-color="hsl(34 27% 90%)" />
      <stop offset="100%" stop-color="hsl(38 23% 85%)" />
    </linearGradient>
  </defs>

  <rect width="1200" height="630" fill="url(#paper)" />
  <rect width="1200" height="630" filter="url(#grain)" />

  <g><line x1="76.3" y1="62.8" x2="752.2" y2="66.4" stroke="hsl(227 8% 45%)" stroke-width="0.9" opacity="0.18"/>
<line x1="87.6" y1="92.8" x2="742.5" y2="96.1" stroke="hsl(227 8% 45%)" stroke-width="0.9" opacity="0.18"/>
<line x1="73.2" y1="115.8" x2="777.5" y2="119.6" stroke="hsl(227 8% 45%)" stroke-width="0.9" opacity="0.18"/>
<line x1="93.8" y1="141.9" x2="735.5" y2="143.0" stroke="hsl(227 8% 45%)" stroke-width="0.9" opacity="0.18"/>
<line x1="62.4" y1="161.0" x2="740.1" y2="163.9" stroke="hsl(227 8% 45%)" stroke-width="0.9" opacity="0.18"/>
<line x1="83.0" y1="187.6" x2="816.3" y2="191.3" stroke="hsl(227 8% 45%)" stroke-width="0.9" opacity="0.18"/>
<line x1="91.2" y1="207.4" x2="743.0" y2="209.0" stroke="hsl(227 8% 45%)" stroke-width="0.9" opacity="0.18"/>
<line x1="70.5" y1="232.9" x2="796.3" y2="236.2" stroke="hsl(227 8% 45%)" stroke-width="0.9" opacity="0.18"/>
<line x1="69.8" y1="261.7" x2="727.5" y2="265.2" stroke="hsl(227 8% 45%)" stroke-width="0.9" opacity="0.18"/>
<line x1="82.4" y1="285.4" x2="814.6" y2="286.2" stroke="hsl(227 8% 45%)" stroke-width="0.9" opacity="0.18"/>
<line x1="79.1" y1="305.9" x2="813.2" y2="307.5" stroke="hsl(227 8% 45%)" stroke-width="0.9" opacity="0.18"/>
<line x1="74.9" y1="331.0" x2="747.9" y2="331.3" stroke="hsl(227 8% 45%)" stroke-width="0.9" opacity="0.18"/>
<line x1="66.6" y1="354.9" x2="776.8" y2="356.2" stroke="hsl(227 8% 45%)" stroke-width="0.9" opacity="0.18"/>
<line x1="94.7" y1="379.3" x2="764.4" y2="382.0" stroke="hsl(227 8% 45%)" stroke-width="0.9" opacity="0.18"/>
<line x1="93.2" y1="403.1" x2="791.5" y2="405.0" stroke="hsl(227 8% 45%)" stroke-width="0.9" opacity="0.18"/>
<line x1="78.2" y1="426.3" x2="754.4" y2="428.0" stroke="hsl(227 8% 45%)" stroke-width="0.9" opacity="0.18"/>
<line x1="93.2" y1="453.0" x2="760.0" y2="455.5" stroke="hsl(227 8% 45%)" stroke-width="0.9" opacity="0.18"/>
<line x1="87.2" y1="470.7" x2="756.0" y2="473.4" stroke="hsl(227 8% 45%)" stroke-width="0.9" opacity="0.18"/>
<line x1="58.8" y1="497.7" x2="764.6" y2="498.5" stroke="hsl(227 8% 45%)" stroke-width="0.9" opacity="0.18"/>
<line x1="65.1" y1="525.7" x2="704.6" y2="526.8" stroke="hsl(227 8% 45%)" stroke-width="0.9" opacity="0.18"/></g>
  <g><path d="M 694.4 463.2 C 917.3 275.6, 323.2 228.8, 539.9 350.5" fill="none" stroke="hsl(227 8% 45%)" stroke-width="1.26" opacity="0.12"/>
<path d="M 156.3 526.3 C 816.2 285.0, 693.4 140.3, 702.7 402.6" fill="none" stroke="hsl(227 8% 45%)" stroke-width="0.80" opacity="0.26"/>
<path d="M 915.2 512.5 C 147.7 262.0, 653.4 183.2, 314.8 507.0" fill="none" stroke="hsl(227 8% 45%)" stroke-width="0.88" opacity="0.12"/>
<path d="M 439.6 97.0 C 528.2 291.1, 989.0 476.1, 451.3 397.5" fill="none" stroke="hsl(227 8% 45%)" stroke-width="1.10" opacity="0.17"/>
<path d="M 849.4 191.3 C 357.6 473.7, 499.6 61.7, 613.4 193.7" fill="none" stroke="hsl(227 8% 45%)" stroke-width="0.74" opacity="0.13"/>
<path d="M 631.6 420.7 C 580.6 261.3, 665.1 171.9, 409.7 214.7" fill="none" stroke="hsl(227 8% 45%)" stroke-width="1.80" opacity="0.23"/>
<path d="M 521.8 307.7 C 1078.9 232.8, 104.6 311.2, 490.7 60.7" fill="none" stroke="hsl(227 8% 45%)" stroke-width="0.89" opacity="0.27"/>
<path d="M 1071.9 386.3 C 68.4 430.8, 256.0 240.3, 901.2 368.0" fill="none" stroke="hsl(227 8% 45%)" stroke-width="1.20" opacity="0.18"/>
<path d="M 1003.4 533.9 C 950.6 302.0, 1061.7 234.7, 731.4 168.1" fill="none" stroke="hsl(227 8% 45%)" stroke-width="1.82" opacity="0.13"/>
<path d="M 940.2 151.8 C 441.9 172.0, 950.8 414.8, 752.0 104.1" fill="none" stroke="hsl(227 8% 45%)" stroke-width="0.92" opacity="0.14"/>
<path d="M 399.0 83.9 C 285.8 395.7, 128.1 492.9, 469.5 297.3" fill="none" stroke="hsl(227 8% 45%)" stroke-width="1.76" opacity="0.17"/>
<path d="M 628.9 232.8 C 738.0 201.7, 704.6 183.1, 143.0 171.8" fill="none" stroke="hsl(227 8% 45%)" stroke-width="1.53" opacity="0.24"/>
<path d="M 746.8 271.6 C 73.3 432.2, 1030.9 104.5, 188.2 517.9" fill="none" stroke="hsl(227 8% 45%)" stroke-width="1.75" opacity="0.22"/>
<path d="M 1001.3 188.3 C 285.7 459.5, 75.7 413.1, 329.5 268.1" fill="none" stroke="hsl(227 8% 45%)" stroke-width="1.85" opacity="0.15"/>
<path d="M 87.6 197.2 C 679.2 525.9, 840.2 145.6, 912.9 568.0" fill="none" stroke="hsl(227 8% 45%)" stroke-width="0.87" opacity="0.11"/>
<path d="M 774.4 521.8 C 78.8 138.4, 934.5 219.6, 846.7 182.9" fill="none" stroke="hsl(227 8% 45%)" stroke-width="1.14" opacity="0.26"/></g>

  <g>
    <rect x="66" y="74" width="1068" height="482" rx="24" fill="none" stroke="hsl(216 10% 32%)" stroke-width="1.4" opacity="0.48" />
    <rect x="82" y="90" width="620" height="450" rx="18" fill="none" stroke="hsl(227 8% 45%)" stroke-width="1.1" opacity="0.36" />
  </g>

  
  <g>
    <path d="M752 168 C828 84 924 84 1092 148" fill="none" stroke="hsl(216 10% 32%)" stroke-width="4"/>
    <path d="M752 262 C846 202 926 214 1100 318" fill="none" stroke="hsl(227 8% 45%)" stroke-width="3"/>
    <path d="M752 360 C844 318 944 342 1098 450" fill="none" stroke="hsl(216 10% 32%)" stroke-width="3.4"/>
    <circle cx="820" cy="432" r="28" fill="none" stroke="hsl(227 8% 45%)" stroke-width="3"/>
    <circle cx="932" cy="216" r="20" fill="none" stroke="hsl(227 8% 45%)" stroke-width="3"/>
  </g>
</svg>